<svg width="1000" height="1000" viewBox="0 0 1000 1000" fill="none" xmlns="http://www.w3.org/2000/svg">
<path d="M462.462 378.366L464.776 378.344C468.199 381.32 493.658 421.314 498.198 428.285C487.101 451.901 473.554 477.33 461.686 500.758L391.405 639.686C427.986 641.987 467.206 641.773 504.073 643.251C551.461 645.157 599.472 647.193 646.873 647.99C664.338 673.181 679.948 700.609 697.017 726.151C702.114 733.781 707.588 742.377 712.102 750.318C654.785 750.169 597.468 749.67 540.158 748.808L182.166 745.618C190.412 732.251 198.819 717.108 206.779 703.449L256.655 617.872L390.483 388.159C396.126 387.823 401.964 386.45 407.547 385.886C425.099 384.111 445.127 379.801 462.462 378.366Z" fill="black"/>
<path d="M473.532 219.108C475.296 221.08 480.59 229.275 482.352 231.935L499.261 257.493L560.099 348.855L688.559 541.882C711.533 576.407 735.245 611.28 757.766 646.021C777.804 646.196 797.829 646.885 817.834 648.074C816.082 655.838 812.822 665.467 810.39 673.18C799.006 709.311 788.916 746.197 777.131 782.166C772.5 775.032 766.932 767.332 762.055 760.27C759.351 756.618 756.686 752.661 754.106 748.893C730.562 714.496 706.184 680.567 682.854 646.027L682.764 636.522C677.939 628.277 670.061 617.283 664.608 609.187L630.69 558.824L535.262 417.03C518.18 391.664 498.582 363.882 482.487 338.153C483.697 332.011 484.371 325.457 485.133 319.217C464.081 325.79 438.129 332.185 416.561 338.013C422.435 324.444 430.037 309.543 436.526 296.026L473.532 219.108Z" fill="black"/>
<path d="M774.375 279.046C788.866 278.918 803.35 278.98 817.834 279.23L696.528 491.72C682.704 473.401 667.579 450.341 654.319 431.168L549.044 279.52C575.481 279.113 602.747 279.42 629.242 279.386L774.375 279.046Z" fill="black"/>
</svg>